PathFileType	4	(X/Y/Z)	C:/Users/beibeiliu/ov580/test_trc\sequence.2_training_dense_left.trc
DataRate	CameraRate	NumFrames	NumMarkers	Units	OrigDataRate	OrigDataStartFrame	OrigNumFrames
120	120	7	19	mm	120	235	313
Frame#	Time	ThumbCMC			ThumbMCP			ThumbIP			ThumbTip			IndexMCP			IndexPIP			IndexTip			MiddleMCP			MiddlePIP			MiddleTip			RingMCP			RingPIP			RingTip			PinkyMCP			PinkyPIP			PinkyTip			BackHand1			BackHand2			BackHand3	
		X0	Y0	Z0	X1	Y1	Z1	X2	Y2	Z2	X3	Y3	Z3	X4	Y4	Z4	X5	Y5	Z5	X6	Y6	Z6	X7	Y7	Z7	X8	Y8	Z8	X9	Y9	Z9	X10	Y10	Z10	X11	Y11	Z11	X12	Y12	Z12	X13	Y13	Z13	X14	Y14	Z14	X15	Y15	Z15	X16	Y16	Z16	X17	Y17	Z17	X18	Y18	Z18	
234	1.95	-150.058	-17.5402	-8.959	-161.875	-42.7356	-24.0182	-172.531	-54.9639	-44.5874	-191.995	-56.5309	-57.649	-153.842	-18.2595	-69.5242	-164.825	-45.03	-68.8938	-168.622	-52.8065	-41.9612	-173.017	-14.5175	-73.9779	-181.306	-42.9183	-69.5542	-181.408	-45.0538	-39.7518	-191.788	-13.5445	-68.3925	-194.603	-37.1835	-63.5346	-191.666	-47.5432	-36.0128	-204.189	-7.84937	-54.2045	-206.705	-32.7158	-52.4753	-195.032	-43.7214	-32.1166	-182.34	21.5348	-28.1018	-178.279	25.3673	-1.19171	-156.539	17.8204	-15.3463	
235	1.95833	-149.761	-14.2302	-4.38435	-158.11	-43.8316	-23.5902	-168.767	-59.0417	-38.9613	-190.864	-61.041	-54.3489	-157.548	-19.9317	-68.7347	-161.367	-46.4315	-68.9479	-164.434	-54.9674	-36.7758	-177.559	-20.3386	-73.5863	-177.326	-49.1429	-67.0179	-178.244	-48.9648	-36.8347	-194.579	-20.8246	-65.6654	-192.04	-45.9235	-56.9613	-187.962	-49.6615	-31.7873	-209.374	-17.6186	-53.3491	-203.075	-41.1239	-46.1298	-192.404	-44.8697	-27.4723	-189.127	16.7806	-27.8595	-187.851	23.8997	-0.859977	-157.582	18.1444	-19.497	
236	1.96667	-146.335	-12.1188	-4.83132	-151.657	-43.8018	-20.4048	-163.539	-59.769	-37.3625	-185.235	-66.578	-49.6286	-153.313	-24.0388	-68.3836	-157.801	-48.8972	-64.9241	-160.589	-54.203	-32.7967	-174.975	-20.9524	-69.1196	-175.736	-53.6055	-65.8029	-171.619	-57.5792	-37.8704	-191.134	-25.6844	-60.9258	-188.282	-52.917	-47.2854	-181.619	-46.4923	-22.1793	-208.73	-25.5409	-49.7446	-196.449	-48.4266	-39.4012	-184.249	-42.418	-18.6892	-189.342	13.881	-27.7838	-191.42	23.0338	-4.60663	-164.399	18.35	-19.7067	
237	1.975	-149.237	-5.43634	-7.5212	-145.953	-37.4212	-22.8928	-159.181	-50.6723	-34.8218	-177.325	-63.4934	-46.8147	-150.783	-23.8511	-66.9384	-148.038	-47.7725	-63.0358	-152.155	-52.2903	-33.3284	-169.335	-27.2589	-68.2379	-164.765	-56.5871	-65.5294	-163.972	-70.7966	-36.9025	-187.425	-32.3883	-57.3733	-178.959	-54.5122	-43.6969	-172.069	-44.0381	-18.4232	-197.89	-32.8243	-47.095	-191.836	-51.2357	-36.7162	-181.465	-39.7198	-11.7649	-193.91	8.88379	-28.5582	-191.596	21.2244	-6.99441	-168.86	20.4279	-19.3226	
238	1.98333	-142.537	-1.83591	-2.6087	-137.72	-33.1821	-14.8293	-147.355	-53.2321	-32.0642	-167.067	-62.7881	-42.4887	-143.128	-20.9963	-62.1255	-139.416	-49.8249	-54.7366	-140.002	-48.5302	-26.33	-162.981	-30.1949	-64.7359	-159.287	-59.5672	-60.0271	-152.037	-73.7997	-33.2901	-177.605	-37.6436	-54.6315	-169.626	-55.502	-39.6712	-166.445	-43.1661	-13.9432	-194.525	-38.5627	-45.0856	-181.111	-52.6166	-30.6645	-176.131	-40.7468	-9.8657	-188.69	7.74994	-27.3226	-194.069	19.3998	-8.36938	-165.298	19.9412	-15.2978	
239	1.99167	-140.239	1.47662	0.927494	-134.227	-30.636	-10.6039	-140.163	-51.7882	-24.57	-155.705	-69.0885	-36.44	-139.537	-22.4304	-58.264	-129.171	-47.392	-50.9734	-135.255	-47.2234	-20.1465	-156.677	-31.3626	-62.3169	-150.518	-59.617	-56.0841	-144.089	-69.5663	-25.8233	-173.012	-38.9272	-52.088	-160.288	-56.9368	-33.8346	-160.82	-45.8064	-11.6939	-187.059	-36.8318	-42.654	-172.503	-54.8363	-26.1558	-166.867	-42.2912	-9.57591	-187.829	2.95098	-30.4948	-193.858	18.6221	-5.72621	-165.209	20.6251	-18.3375	
240	2	-139.021	1.517	0.877581	-128.11	-27.9202	-1.57492	-126.15	-51.3025	-14.401	-140.691	-68.5463	-26.1077	-131.762	-21.9924	-53.9499	-122.934	-47.7287	-42.0922	-125.466	-46.1692	-16.5398	-148.44	-35.1356	-60.8261	-138.625	-56.7675	-52.0252	-137.28	-53.0886	-16.2116	-160.531	-40.1619	-50.7202	-150.238	-57.1475	-33.4444	-151.622	-44.3457	-7.11794	-179.551	-47.1568	-40.5174	-164.518	-56.4133	-23.3705	-158.179	-38.7467	-6.36078	-186.052	1.47234	-29.8974	-189.207	14.3109	-7.79576	-163.131	21.0761	-18.8447	
